REM DIRINDEX 1\2,1\3\7,1\3\8,1\4\9,1\4\10,1\4\11,1\5\12,1\5\13,1\5\14,1\6\15,1\6\16,1\6\17
REM DIRNAME "folder01","folder02","folder03","folder04","folder05","folder06","folder07","folder08","folder09","folder10","folder11","folder12","folder13","folder14","folder15","folder16","folder17"
TITLE ""
FILE "2Q_t_0853-0870.mp3" MP3
  TRACK 01 AUDIO
    TITLE "0:"
    INDEX 01 00:00:00
  TRACK 02 AUDIO
    TITLE "7:cjc174_3482"
    INDEX 01 00:00:10
  TRACK 03 AUDIO
    TITLE "0:"
    INDEX 01 00:01:29
  TRACK 04 AUDIO
    TITLE "8:cjc174_3483"
    INDEX 01 00:02:01
  TRACK 05 AUDIO
    TITLE "0:"
    INDEX 01 00:05:66
  TRACK 06 AUDIO
    TITLE "7:cjc174_3484"
    INDEX 01 00:06:36
  TRACK 07 AUDIO
    TITLE "0:"
    INDEX 01 00:07:53
  TRACK 08 AUDIO
    TITLE "8:cjc174_3485"
    INDEX 01 00:08:24
  TRACK 09 AUDIO
    TITLE "0:"
    INDEX 01 00:09:39
  TRACK 10 AUDIO
    TITLE "7:cjc174_3486"
    INDEX 01 00:10:07
  TRACK 11 AUDIO
    TITLE "0:"
    INDEX 01 00:11:12
  TRACK 12 AUDIO
    TITLE "8:cjc174_3487"
    INDEX 01 00:11:61
  TRACK 13 AUDIO
    TITLE "0:"
    INDEX 01 00:13:66
  TRACK 14 AUDIO
    TITLE "7:cjc174_3488"
    INDEX 01 00:14:34
  TRACK 15 AUDIO
    TITLE "0:"
    INDEX 01 00:15:57
  TRACK 16 AUDIO
    TITLE "8:cjc174_3489"
    INDEX 01 00:16:31
  TRACK 17 AUDIO
    TITLE "0:"
    INDEX 01 00:18:53
  TRACK 18 AUDIO
    TITLE "7:cjc174_3490"
    INDEX 01 00:19:23
  TRACK 19 AUDIO
    TITLE "0:"
    INDEX 01 00:20:44
  TRACK 20 AUDIO
    TITLE "8:cjc174_3491"
    INDEX 01 00:21:18
  TRACK 21 AUDIO
    TITLE "0:"
    INDEX 01 00:24:38
  TRACK 22 AUDIO
    TITLE "7:cjc174_3492"
    INDEX 01 00:25:12
  TRACK 23 AUDIO
    TITLE "0:"
    INDEX 01 00:26:19
  TRACK 24 AUDIO
    TITLE "8:cjc174_3493"
    INDEX 01 00:26:68
  TRACK 25 AUDIO
    TITLE "0:"
    INDEX 01 00:29:22
  TRACK 26 AUDIO
    TITLE "7:cjc174_3494"
    INDEX 01 00:29:67
  TRACK 27 AUDIO
    TITLE "0:"
    INDEX 01 00:30:66
  TRACK 28 AUDIO
    TITLE "8:cjc174_3495"
    INDEX 01 00:31:48
  TRACK 29 AUDIO
    TITLE "0:"
    INDEX 01 00:32:55
  TRACK 30 AUDIO
    TITLE "7:cjc174_3496"
    INDEX 01 00:33:25
  TRACK 31 AUDIO
    TITLE "0:"
    INDEX 01 00:34:37
  TRACK 32 AUDIO
    TITLE "8:cjc174_3497"
    INDEX 01 00:35:09
  TRACK 33 AUDIO
    TITLE "0:"
    INDEX 01 00:37:27
  TRACK 34 AUDIO
    TITLE "7:cjc174_3498"
    INDEX 01 00:37:74
  TRACK 35 AUDIO
    TITLE "0:"
    INDEX 01 00:39:06
  TRACK 36 AUDIO
    TITLE "8:cjc174_3499"
    INDEX 01 00:39:51
  TRACK 37 AUDIO
    TITLE "0:"
    INDEX 01 00:41:62
  TRACK 38 AUDIO
    TITLE "7:cjc174_3500"
    INDEX 01 00:42:32
  TRACK 39 AUDIO
    TITLE "0:"
    INDEX 01 00:43:57
  TRACK 40 AUDIO
    TITLE "8:cjc174_3501"
    INDEX 01 00:44:35
  TRACK 41 AUDIO
    TITLE "0:"
    INDEX 01 00:45:68
  TRACK 42 AUDIO
    TITLE "7:cjc174_3502"
    INDEX 01 00:46:38
  TRACK 43 AUDIO
    TITLE "0:"
    INDEX 01 00:47:45
  TRACK 44 AUDIO
    TITLE "8:cjc174_3503"
    INDEX 01 00:48:15
  TRACK 45 AUDIO
    TITLE "0:"
    INDEX 01 00:50:16
  TRACK 46 AUDIO
    TITLE "7:cjc174_3504"
    INDEX 01 00:50:61
  TRACK 47 AUDIO
    TITLE "0:"
    INDEX 01 00:52:23
  TRACK 48 AUDIO
    TITLE "8:cjc174_3505"
    INDEX 01 00:52:72
  TRACK 49 AUDIO
    TITLE "0:"
    INDEX 01 00:55:09
  TRACK 50 AUDIO
    TITLE "7:cjc174_3506"
    INDEX 01 00:55:54
  TRACK 51 AUDIO
    TITLE "0:"
    INDEX 01 00:57:06
  TRACK 52 AUDIO
    TITLE "8:cjc174_3507"
    INDEX 01 00:57:53
  TRACK 53 AUDIO
    TITLE "0:"
    INDEX 01 00:58:55
  TRACK 54 AUDIO
    TITLE "7:cjc174_3508"
    INDEX 01 00:59:23
  TRACK 55 AUDIO
    TITLE "0:"
    INDEX 01 01:00:54
  TRACK 56 AUDIO
    TITLE "8:cjc174_3509"
    INDEX 01 01:01:26
  TRACK 57 AUDIO
    TITLE "0:"
    INDEX 01 01:02:37
  TRACK 58 AUDIO
    TITLE "7:cjc174_3510"
    INDEX 01 01:03:07
  TRACK 59 AUDIO
    TITLE "0:"
    INDEX 01 01:04:32
  TRACK 60 AUDIO
    TITLE "8:cjc174_3511"
    INDEX 01 01:05:16
  TRACK 61 AUDIO
    TITLE "0:"
    INDEX 01 01:06:29
  TRACK 62 AUDIO
    TITLE "7:cjc174_3512"
    INDEX 01 01:06:74
  TRACK 63 AUDIO
    TITLE "0:"
    INDEX 01 01:08:26
  TRACK 64 AUDIO
    TITLE "8:cjc174_3513"
    INDEX 01 01:08:73
  TRACK 65 AUDIO
    TITLE "0:"
    INDEX 01 01:10:31
  TRACK 66 AUDIO
    TITLE "7:cjc174_3514"
    INDEX 01 01:11:01
  TRACK 67 AUDIO
    TITLE "0:"
    INDEX 01 01:12:27
  TRACK 68 AUDIO
    TITLE "8:cjc174_3515"
    INDEX 01 01:12:74
  TRACK 69 AUDIO
    TITLE "0:"
    INDEX 01 01:13:68
  TRACK 70 AUDIO
    TITLE "7:cjc174_3516"
    INDEX 01 01:14:36
  TRACK 71 AUDIO
    TITLE "0:"
    INDEX 01 01:15:59
  TRACK 72 AUDIO
    TITLE "8:cjc174_3517"
    INDEX 01 01:16:35
  TRACK 73 AUDIO
    TITLE "0:"
    INDEX 01 01:19:33
